<svg width="120" height="24" viewBox="0 0 120 24" fill="none" xmlns="http://www.w3.org/2000/svg">
<path d="M11.0909 1.98449C11.4473 1.20648 12.5527 1.20648 12.9091 1.98449L15.137 6.84749C15.2826 7.16535 15.5836 7.38407 15.9309 7.42434L21.2444 8.0404C22.0944 8.13896 22.436 9.19028 21.8063 9.76968L17.8697 13.3912C17.6124 13.6279 17.4974 13.9819 17.5664 14.3246L18.6225 19.5683C18.7914 20.4073 17.8971 21.057 17.1515 20.6371L12.4907 18.0123C12.1861 17.8408 11.8139 17.8408 11.5093 18.0123L6.84854 20.6371C6.10289 21.057 5.20857 20.4073 5.37752 19.5683L6.43356 14.3246C6.50258 13.9819 6.38759 13.6279 6.13029 13.3912L2.19374 9.76968C1.56396 9.19028 1.90556 8.13896 2.75562 8.0404L8.06905 7.42434C8.41635 7.38407 8.7174 7.16535 8.86302 6.84749L11.0909 1.98449Z" fill="#F0AB21"/>
<path d="M35.0909 1.98449C35.4473 1.20648 36.5527 1.20648 36.9091 1.98449L39.137 6.84749C39.2826 7.16535 39.5836 7.38407 39.9309 7.42434L45.2444 8.0404C46.0944 8.13896 46.436 9.19028 45.8063 9.76968L41.8697 13.3912C41.6124 13.6279 41.4974 13.9819 41.5664 14.3246L42.6225 19.5683C42.7914 20.4073 41.8971 21.057 41.1515 20.6371L36.4907 18.0123C36.1861 17.8408 35.8139 17.8408 35.5093 18.0123L30.8485 20.6371C30.1029 21.057 29.2086 20.4073 29.3775 19.5683L30.4336 14.3246C30.5026 13.9819 30.3876 13.6279 30.1303 13.3912L26.1937 9.76968C25.564 9.19028 25.9056 8.13896 26.7556 8.0404L32.0691 7.42434C32.4164 7.38407 32.7174 7.16535 32.863 6.84749L35.0909 1.98449Z" fill="#F0AB21"/>
<path d="M59.0909 1.98449C59.4473 1.20648 60.5527 1.20648 60.9091 1.98449L63.137 6.84749C63.2826 7.16535 63.5836 7.38407 63.9309 7.42434L69.2444 8.0404C70.0944 8.13896 70.436 9.19028 69.8063 9.76968L65.8697 13.3912C65.6124 13.6279 65.4974 13.9819 65.5664 14.3246L66.6225 19.5683C66.7914 20.4073 65.8971 21.057 65.1515 20.6371L60.4907 18.0123C60.1861 17.8408 59.8139 17.8408 59.5093 18.0123L54.8485 20.6371C54.1029 21.057 53.2086 20.4073 53.3775 19.5683L54.4336 14.3246C54.5026 13.9819 54.3876 13.6279 54.1303 13.3912L50.1937 9.76968C49.564 9.19028 49.9056 8.13896 50.7556 8.0404L56.0691 7.42434C56.4164 7.38407 56.7174 7.16535 56.863 6.84749L59.0909 1.98449Z" fill="#F0AB21"/>
<path d="M83.0909 1.98449C83.4473 1.20648 84.5527 1.20648 84.9091 1.98449L87.137 6.84749C87.2826 7.16535 87.5836 7.38407 87.9309 7.42434L93.2444 8.0404C94.0944 8.13896 94.436 9.19028 93.8063 9.76968L89.8697 13.3912C89.6124 13.6279 89.4974 13.9819 89.5664 14.3246L90.6225 19.5683C90.7914 20.4073 89.8971 21.057 89.1515 20.6371L84.4907 18.0123C84.1861 17.8408 83.8139 17.8408 83.5093 18.0123L78.8485 20.6371C78.1029 21.057 77.2086 20.4073 77.3775 19.5683L78.4336 14.3246C78.5026 13.9819 78.3876 13.6279 78.1303 13.3912L74.1937 9.76968C73.564 9.19028 73.9056 8.13896 74.7556 8.0404L80.0691 7.42434C80.4164 7.38407 80.7174 7.16535 80.863 6.84749L83.0909 1.98449Z" fill="#F0AB21"/>
<path d="M107.091 1.98449C107.447 1.20648 108.553 1.20648 108.909 1.98449L111.137 6.84749C111.283 7.16535 111.584 7.38407 111.931 7.42434L117.244 8.0404C118.094 8.13896 118.436 9.19028 117.806 9.76968L113.87 13.3912C113.612 13.6279 113.497 13.9819 113.566 14.3246L114.622 19.5683C114.791 20.4073 113.897 21.057 113.151 20.6371L108.491 18.0123C108.186 17.8408 107.814 17.8408 107.509 18.0123L102.849 20.6371C102.103 21.057 101.209 20.4073 101.378 19.5683L102.434 14.3246C102.503 13.9819 102.388 13.6279 102.13 13.3912L98.1937 9.76968C97.564 9.19028 97.9056 8.13896 98.7556 8.0404L104.069 7.42434C104.416 7.38407 104.717 7.16535 104.863 6.84749L107.091 1.98449Z" fill="#D9D9D9"/>
</svg>
