<svg width="14" height="14" viewBox="0 0 14 14" fill="none" xmlns="http://www.w3.org/2000/svg">
<path d="M11.8892 0.362939C12.355 -0.132862 13.1532 -0.110219 13.6304 0.366845C14.0983 0.834777 14.1397 1.63775 13.6597 2.10806L8.70654 6.99673L13.6597 11.9499C14.1326 12.4126 14.0881 13.1686 13.6304 13.6266C13.156 14.101 12.3306 14.1374 11.8511 13.6559L7.00049 8.74185L2.09814 13.6432C1.62992 14.1268 0.8429 14.0989 0.370603 13.6266C-0.0972649 13.1587 -0.138719 12.3567 0.341306 11.8864L5.29443 6.99673L0.341306 2.0436C-0.131604 1.58075 -0.0873267 0.824775 0.370603 0.366845C0.835578 -0.0978809 1.61276 -0.134876 2.08545 0.337548L7.00049 5.25259L11.8892 0.362939Z" fill="#1D1E21"/>
</svg>
