<svg width="18" height="23" viewBox="0 0 18 23" fill="none" xmlns="http://www.w3.org/2000/svg">
<path d="M11.8389 0C12.4236 0 12.8974 0.473834 12.8975 1.05859V2.04688H15.4336C16.5822 2.0473 17.5193 2.97732 17.5195 4.12988V20.5117C17.5194 21.6643 16.5822 22.5942 15.4336 22.5947H2.08594C0.937162 22.5946 0.000164346 21.6645 0 20.5117V4.12988C0.000232092 2.97716 0.937204 2.04705 2.08594 2.04688H4.62012V1.05859C4.62013 0.474086 5.0943 0.000407888 5.67871 0C6.2633 0.000203136 6.73827 0.47396 6.73828 1.05859V2.04688H10.7803V1.05859C10.7803 0.474051 11.2544 0.000350713 11.8389 0ZM2.11816 20.4775H15.4014V4.16504H12.8965C12.8778 4.7334 12.4118 5.18945 11.8389 5.18945C11.2662 5.18911 10.7999 4.7332 10.7812 4.16504H6.73633C6.71763 4.73328 6.25145 5.18926 5.67871 5.18945C5.10614 5.18905 4.64074 4.73315 4.62207 4.16504H2.11816V20.4775ZM8.75879 15.8701C9.3435 15.8703 9.81836 16.344 9.81836 16.9287C9.81792 17.5131 9.34324 17.9873 8.75879 17.9873H4.65234C4.06801 17.9872 3.59321 17.513 3.59277 16.9287C3.59277 16.3441 4.06775 15.8704 4.65234 15.8701H8.75879ZM10.8115 11.7734C11.396 11.7734 11.8706 12.2477 11.8711 12.832C11.8708 13.4165 11.3961 13.8916 10.8115 13.8916H4.65234C4.06794 13.8914 3.59308 13.4164 3.59277 12.832C3.59333 12.2479 4.06809 11.7736 4.65234 11.7734H10.8115ZM12.8662 7.67871C13.4508 7.6789 13.9248 8.15363 13.9248 8.73828C13.9241 9.32237 13.4504 9.7967 12.8662 9.79688H4.65234C4.06817 9.79668 3.59346 9.32235 3.59277 8.73828C3.59277 8.15364 4.06775 7.67892 4.65234 7.67871H12.8662Z" fill="CurrentColor"/>
</svg>
