<svg width="24" height="23" viewBox="0 0 24 23" fill="none" xmlns="http://www.w3.org/2000/svg">
<path d="M8 0C10.5253 0 12.6772 1.10279 14.1064 2.87207C14.4532 3.30168 14.3866 3.93135 13.957 4.27832C13.5274 4.62526 12.8978 4.55751 12.5508 4.12793C11.496 2.82232 9.91264 2 8 2C4.58139 2 2.09284 4.66879 2.03027 8.21777C2.01188 9.26227 2 10.4393 2 11.7559V21H22C22.5523 21 23 21.4477 23 22C23 22.5523 22.5523 23 22 23H1C0.447715 23 0 22.5523 0 22V11.7559C8.12612e-07 10.4277 0.0116719 9.23896 0.0302734 8.18262C0.109709 3.6766 3.36161 0 8 0ZM4.51758 4.53613C7.26088 4.58431 10.003 4.68727 12.7422 4.84473H12.7441C14.4192 4.94342 16.1716 5.47542 17.4873 6.75488C19.2955 8.51226 21.1175 11.0495 22.4404 14.041L22.6982 14.6455C23.8569 17.4661 21.7743 20.203 18.9043 20.3467C17.1895 20.4326 14.8977 20.5 11.9297 20.5H3.5C2.94784 20.5 2.5002 20.0521 2.5 19.5C2.5002 18.9479 2.94784 18.5 3.5 18.5H11.9297C14.8675 18.5 17.1255 18.4327 18.8037 18.3486C20.4732 18.2651 21.4164 16.7894 20.8486 15.4062L20.6104 14.8477C19.3877 12.0838 17.7109 9.76101 16.0928 8.18848C15.2256 7.3453 13.9906 6.92215 12.626 6.8418C9.91378 6.68591 7.19868 6.58383 4.48242 6.53613C3.93023 6.52642 3.4903 6.07075 3.5 5.51855C3.5099 4.96654 3.96551 4.52644 4.51758 4.53613ZM17.5 15.5C18.0523 15.5 18.5 15.9477 18.5 16.5C18.5 17.0523 18.0523 17.5 17.5 17.5H3.5C2.94772 17.5 2.5 17.0523 2.5 16.5C2.5 15.9477 2.94772 15.5 3.5 15.5H17.5ZM3.94629 8C4.2854 8.00005 4.61941 8.08659 4.91602 8.25098C5.2125 8.41541 5.46192 8.65293 5.6416 8.94043L7.37012 11.7051C7.47654 11.8754 7.54741 12.0648 7.5791 12.2617L7.59766 12.4609L7.58984 12.6602C7.56854 12.8586 7.50755 13.0518 7.41016 13.2275C7.2804 13.4616 7.08991 13.6561 6.85938 13.792C6.68647 13.8938 6.49541 13.9598 6.29785 13.9863L6.09766 14H3.5C2.94772 14 2.5 13.5523 2.5 13C2.5 12.4477 2.94772 12 3.5 12H5.19629L3.94629 10H3.5C2.94772 10 2.5 9.55229 2.5 9C2.5 8.44771 2.94772 8 3.5 8H3.94629ZM12.543 8C13.1367 8 13.8183 8.12312 14.4189 8.5293L14.6426 8.68652C15.7473 9.49442 16.6161 10.5895 17.1582 11.3701C17.9921 12.571 17.0331 13.999 15.749 13.999C14.1281 13.9985 11.8892 14 10.5527 14C9.86195 13.9999 9.22304 13.6438 8.8584 13.0596L7.12988 10.2949C6.98801 10.0679 6.90937 9.80668 6.90234 9.53906C6.89537 9.2715 6.96009 9.00656 7.08984 8.77246L7.19824 8.60449C7.31722 8.44456 7.46774 8.30989 7.64062 8.20801C7.87133 8.0721 8.13459 8 8.40234 8H12.543ZM10.5537 11.999C11.7274 11.999 13.6015 11.9989 15.1387 11.999C14.6441 11.358 14.0115 10.6672 13.2998 10.1865C13.1305 10.072 12.879 10 12.543 10H9.30469L10.5537 11.999Z" fill="#D14E15"/>
</svg>
