<svg width="22" height="18" viewBox="0 0 22 18" fill="none" xmlns="http://www.w3.org/2000/svg">
<path d="M20 0C20.5272 0 21.0439 0.18058 21.4316 0.568359C21.8194 0.956139 22 1.47275 22 2V15C22 15.7957 21.6837 16.5585 21.1211 17.1211C20.5585 17.6837 19.7957 18 19 18H14C13.6488 18 13.3233 17.8158 13.1426 17.5146L11 13.9434L8.85742 17.5146C8.67668 17.8158 8.35121 18 8 18H3C2.20435 18 1.44151 17.6837 0.878906 17.1211C0.316297 16.5585 0 15.7956 0 15V2C0 1.47275 0.18058 0.956139 0.568359 0.568359C0.956139 0.18058 1.47275 0 2 0H20ZM2 10.1309L3.44531 9.16797C3.90484 8.86162 4.52568 8.98578 4.83203 9.44531C5.13838 9.90484 5.01422 10.5257 4.55469 10.832L2 12.5352V15C2 15.2652 2.10543 15.5195 2.29297 15.707C2.48051 15.8946 2.73478 16 3 16H7.43359C7.43359 16 9.96875 11.7051 10.1426 11.4854C10.3164 11.2656 10.6716 11 11 11C11.3512 11 11.6767 11.1842 11.8574 11.4854C12.0382 11.7865 14.5664 16 14.5664 16H19C19.2652 16 19.5195 15.8946 19.707 15.707C19.8946 15.5195 20 15.2652 20 15V12.5352L17.4453 10.832C16.9858 10.5257 16.8616 9.90484 17.168 9.44531C17.4743 8.98578 18.0952 8.86162 18.5547 9.16797L20 10.1309V6H15V9C15 9.55229 14.5523 10 14 10C13.4477 10 13 9.55229 13 9V6H9V9C9 9.55229 8.55229 10 8 10C7.44772 10 7 9.55229 7 9V6H2V10.1309ZM2 4H20V2H2V4Z" fill="#D14E15"/>
</svg>
