<svg width="20" height="22" viewBox="0 0 20 22" fill="none" xmlns="http://www.w3.org/2000/svg">
<path d="M3.36914 11.9979C3.81153 11.998 4.25168 12.0973 4.65234 12.2919L6.69238 13.2792C6.81816 13.3399 6.96073 13.3729 7.10645 13.3729H8.14844C8.99987 13.3731 9.77915 13.7491 10.3027 14.3505L14.2744 13.1308C15.49 12.758 16.8437 13.2184 17.5811 14.2538L17.5889 14.2636C18.287 15.2402 18.0146 16.6462 16.9521 17.2587L16.9512 17.2577L9.4375 21.5937C8.73292 22.0012 7.86659 22.1053 7.08594 21.8749L0.69043 19.9765C-0.545767 19.6093 0.0222725 17.6932 1.25879 18.0595L7.6543 19.9569C7.91416 20.0334 8.20203 19.9988 8.43652 19.8632L15.9531 15.5263C15.9899 15.5048 15.9777 15.4435 15.9541 15.4169C15.6982 15.0553 15.278 14.9509 14.8613 15.0429L10.9697 16.2382C10.9284 16.7047 10.5955 17.0699 10.1797 17.1874L10.1748 17.1884L7.63379 17.8915C6.94419 18.082 6.20859 18.0153 5.56445 17.704L3.38086 16.6483C2.22037 16.0863 3.09099 14.2866 4.25195 14.8476L6.43359 15.9032C6.64076 16.0033 6.8788 16.0249 7.10059 15.9638L8.65234 15.5341C8.51671 15.4357 8.34474 15.373 8.14844 15.3729H7.10645C6.66277 15.3729 6.22398 15.2729 5.82422 15.08L3.78125 14.0917L3.7793 14.0907C3.65488 14.0302 3.51352 13.998 3.36914 13.9979H0.974609C-0.31481 13.9978 -0.314844 11.9981 0.974609 11.9979H3.36914ZM8.55566 0.766504C9.82609 0.166368 11.2326 -0.0886147 12.6328 0.0272465C14.0331 0.143239 15.3788 0.626741 16.5332 1.42764C17.6874 2.22858 18.6111 3.31987 19.21 4.59072C19.8087 5.86188 20.0618 7.26966 19.9443 8.66982C19.8267 10.0699 19.3423 11.4148 18.54 12.5683C17.8035 13.627 16.1618 12.4856 16.8984 11.4267C17.5002 10.5615 17.8629 9.55202 17.9512 8.50186C18.0392 7.45192 17.8493 6.39646 17.4004 5.44326C16.9513 4.49018 16.2592 3.6709 15.3936 3.07022C14.5278 2.46958 13.5179 2.1074 12.4678 2.02041C11.4177 1.93354 10.3629 2.12505 9.41016 2.5751C8.4573 3.02525 7.63892 3.71841 7.03906 4.58486C6.43933 5.4513 6.07808 6.46138 5.99219 7.51162C5.90644 8.56183 6.09972 9.61697 6.55078 10.5692C7.103 11.7348 5.2955 12.5913 4.74316 11.4257C4.14165 10.1559 3.88468 8.74892 3.99902 7.34854C4.11354 5.94838 4.59505 4.60232 5.39453 3.44717C6.19435 2.2918 7.28511 1.36674 8.55566 0.766504ZM12.4756 4.39346C15.351 4.39347 15.2622 9.66006 12.5137 9.66006C12.1463 9.66006 11.6746 9.66006 11.2607 9.66006V9.89736H11.709C12.9986 9.89759 12.9986 11.8971 11.709 11.8974H11.2334C10.9706 13.0147 9.26092 12.8259 9.26074 11.6679V5.40127C9.26091 4.9203 9.57993 4.39355 10.2939 4.39346C10.2939 4.39346 11.6831 4.39346 12.4756 4.39346ZM11.2607 7.66006H11.8486C12.6504 7.65983 12.6912 6.39195 11.8857 6.39346H11.2607V7.66006Z" fill="#D14E15"/>
</svg>
