<svg width="140" height="67" viewBox="0 0 140 67" fill="none" xmlns="http://www.w3.org/2000/svg">
<path d="M41.1445 24.1748C41.2234 24.1754 66.5387 24.3651 82.7666 24.1611C99.0124 23.9569 124.35 23.1292 124.389 23.1279C124.355 23.1315 105.355 25.1517 86.4023 29.0957C85.0018 28.7688 83.5452 28.6279 82.0703 28.6279C79.3855 28.6279 76.8096 29.1939 74.4238 30.3809L74.3945 30.3955C73.0628 31.054 71.8709 31.8895 70.8252 32.8848C68.8905 33.4423 67.0224 34.0227 65.2471 34.627C64.2113 34.9795 63.2113 35.3206 62.2412 35.6514C62.0361 35.1751 61.7926 34.7092 61.5059 34.2578H61.5068C61.5034 34.2523 61.4996 34.2467 61.4961 34.2412C61.4869 34.2267 61.4781 34.2117 61.4688 34.1973H61.4668C60.288 32.3435 58.5867 31.1122 56.7666 30.334H56.7676C56.7443 30.3237 56.7206 30.3139 56.6973 30.3037C56.6908 30.301 56.6842 30.2986 56.6777 30.2959H56.6768C54.9702 29.5596 53.085 29.2421 51.1855 29.166L51.1895 29.1641H51.126C50.8266 29.1529 50.5269 29.1475 50.2275 29.1475H37.5078L33.2773 16.1797L29.0674 29.1885L15.3926 29.2041L26.4648 37.2295L22.2539 50.2373L33.3066 42.1885L33.8672 41.7793V48.042C33.6838 48.1498 33.499 48.2581 33.3135 48.3682C24.788 53.4241 12.8035 63.302 12.7588 63.3389L20.5889 39.1455L0 24.2217L25.4287 24.1924L33.2598 0L41.1445 24.1748ZM50.2275 34.1475C52.0939 34.1475 53.6005 34.4007 54.7471 34.9072C55.8936 35.3872 56.7343 36.054 57.2676 36.9072C57.3481 37.032 57.42 37.1608 57.4883 37.291C55.4011 38.0233 53.4353 38.7371 51.5225 39.4756C51.4584 39.4018 51.3877 39.3317 51.3076 39.2676C50.9076 38.9476 50.1873 38.7881 49.1475 38.7881H45.0273V42.1914C43.0286 43.1017 41.0027 44.0997 38.8672 45.2373V38.1377L40.1377 37.2129L44.3467 34.1475H50.2275Z" fill="#D14E15"/>
<path d="M128.281 55.8674C126.308 55.8674 124.495 55.4808 122.841 54.7074C121.215 53.9341 119.908 52.7341 118.921 51.1074C117.961 49.4541 117.481 47.4008 117.481 44.9474V44.1474C117.481 41.8541 117.961 39.9341 118.921 38.3874C119.908 36.8141 121.215 35.6274 122.841 34.8274C124.495 34.0274 126.308 33.6274 128.281 33.6274C130.281 33.6274 132.095 34.0274 133.721 34.8274C135.348 35.6274 136.641 36.8141 137.601 38.3874C138.588 39.9341 139.081 41.8541 139.081 44.1474V44.9474C139.081 47.3741 138.588 49.4008 137.601 51.0274C136.641 52.6274 135.348 53.8408 133.721 54.6674C132.095 55.4674 130.281 55.8674 128.281 55.8674ZM128.281 50.7474C129.241 50.7474 130.055 50.5208 130.721 50.0674C131.388 49.5874 131.895 48.9074 132.241 48.0274C132.588 47.1474 132.761 46.1208 132.761 44.9474V44.1474C132.761 43.0808 132.588 42.1474 132.241 41.3474C131.895 40.5474 131.388 39.9208 130.721 39.4674C130.055 38.9874 129.241 38.7474 128.281 38.7474C127.321 38.7474 126.508 38.9874 125.841 39.4674C125.175 39.9208 124.668 40.5474 124.321 41.3474C123.975 42.1474 123.801 43.0808 123.801 44.1474V44.9474C123.801 46.1741 123.975 47.2274 124.321 48.1074C124.668 48.9608 125.175 49.6141 125.841 50.0674C126.508 50.5208 127.321 50.7474 128.281 50.7474Z" fill="#797C85"/>
<path d="M95.0781 55.3474V34.1474H106.438C108.305 34.1474 109.811 34.4007 110.958 34.9074C112.105 35.3874 112.945 36.0541 113.478 36.9074C114.011 37.7341 114.278 38.6807 114.278 39.7474C114.278 40.7341 113.985 41.6674 113.398 42.5474C112.811 43.4274 111.971 44.0141 110.878 44.3074C112.185 44.6274 113.211 45.2407 113.958 46.1474C114.705 47.0541 115.078 48.1074 115.078 49.3074C115.078 51.1474 114.425 52.6141 113.118 53.7074C111.811 54.8007 109.851 55.3474 107.238 55.3474H95.0781ZM101.238 50.7074H105.718C106.785 50.7074 107.585 50.5474 108.118 50.2274C108.651 49.9074 108.918 49.4141 108.918 48.7474C108.918 48.0807 108.651 47.5874 108.118 47.2674C107.585 46.9207 106.785 46.7474 105.718 46.7474H101.238V50.7074ZM101.238 42.4274H105.358C106.451 42.4274 107.185 42.2674 107.558 41.9474C107.931 41.6007 108.118 41.1474 108.118 40.5874C108.118 40.0274 107.918 39.5874 107.518 39.2674C107.118 38.9474 106.398 38.7874 105.358 38.7874H101.238V42.4274Z" fill="#797C85"/>
<path d="M82.0705 55.8674C79.9905 55.8674 78.1372 55.4674 76.5105 54.6674C74.8838 53.8674 73.6038 52.6541 72.6705 51.0274C71.7372 49.4008 71.2705 47.3741 71.2705 44.9474V44.1474C71.2705 41.9074 71.7505 40.0008 72.7105 38.4274C73.6972 36.8541 75.0038 35.6674 76.6305 34.8674C78.2838 34.0408 80.0972 33.6274 82.0705 33.6274C84.2038 33.6274 85.9905 34.0008 87.4305 34.7474C88.8705 35.4674 89.9772 36.4408 90.7505 37.6674C91.5238 38.8941 91.9638 40.2541 92.0705 41.7474H85.7105C85.5238 40.7874 85.1372 40.0541 84.5505 39.5474C83.9905 39.0141 83.1638 38.7474 82.0705 38.7474C81.2172 38.7474 80.4438 38.9474 79.7505 39.3474C79.0838 39.7474 78.5505 40.3474 78.1505 41.1474C77.7772 41.9208 77.5905 42.9208 77.5905 44.1474V44.9474C77.5905 46.2541 77.7772 47.3341 78.1505 48.1874C78.5238 49.0408 79.0438 49.6808 79.7105 50.1074C80.3772 50.5074 81.1638 50.7074 82.0705 50.7074C83.0038 50.7074 83.7905 50.4674 84.4305 49.9874C85.0972 49.4808 85.5238 48.7341 85.7105 47.7474H92.0705C91.9638 49.4008 91.4838 50.8408 90.6305 52.0674C89.7772 53.2941 88.6172 54.2408 87.1505 54.9074C85.7105 55.5474 84.0172 55.8674 82.0705 55.8674Z" fill="#797C85"/>
<path d="M38.8672 55.3474V34.1474H50.2272C52.0939 34.1474 53.6005 34.4007 54.7472 34.9074C55.8939 35.3874 56.7339 36.0541 57.2672 36.9074C57.8005 37.7341 58.0672 38.6807 58.0672 39.7474C58.0672 40.7341 57.7739 41.6674 57.1872 42.5474C56.6005 43.4274 55.7605 44.0141 54.6672 44.3074C55.9739 44.6274 57.0005 45.2407 57.7472 46.1474C58.4939 47.0541 58.8672 48.1074 58.8672 49.3074C58.8672 51.1474 58.2139 52.6141 56.9072 53.7074C55.6005 54.8007 53.6405 55.3474 51.0272 55.3474H38.8672ZM45.0272 50.7074H49.5072C50.5739 50.7074 51.3739 50.5474 51.9072 50.2274C52.4405 49.9074 52.7072 49.4141 52.7072 48.7474C52.7072 48.0807 52.4405 47.5874 51.9072 47.2674C51.3739 46.9207 50.5739 46.7474 49.5072 46.7474H45.0272V50.7074ZM45.0272 42.4274H49.1472C50.2405 42.4274 50.9739 42.2674 51.3472 41.9474C51.7205 41.6007 51.9072 41.1474 51.9072 40.5874C51.9072 40.0274 51.7072 39.5874 51.3072 39.2674C50.9072 38.9474 50.1872 38.7874 49.1472 38.7874H45.0272V42.4274Z" fill="#797C85"/>
<path d="M127.613 64.3474V57.9874H129.857L131.369 61.1434L132.881 57.9874H135.053V64.3474H133.301V60.4474L131.933 63.1474H130.733L129.365 60.4474V64.3474H127.613Z" fill="#C3C6D0"/>
<path d="M120.289 64.3474V57.9874H122.089V61.8274L124.789 57.9874H126.409V64.3474H124.609V60.5074L121.909 64.3474H120.289Z" fill="#C3C6D0"/>
<path d="M116.094 64.5034C115.502 64.5034 114.958 64.3874 114.462 64.1554C113.974 63.9234 113.582 63.5634 113.286 63.0754C112.998 62.5794 112.854 61.9634 112.854 61.2274V60.9874C112.854 60.2994 112.998 59.7234 113.286 59.2594C113.582 58.7874 113.974 58.4314 114.462 58.1914C114.958 57.9514 115.502 57.8314 116.094 57.8314C116.694 57.8314 117.238 57.9514 117.726 58.1914C118.214 58.4314 118.602 58.7874 118.89 59.2594C119.186 59.7234 119.334 60.2994 119.334 60.9874V61.2274C119.334 61.9554 119.186 62.5634 118.89 63.0514C118.602 63.5314 118.214 63.8954 117.726 64.1434C117.238 64.3834 116.694 64.5034 116.094 64.5034ZM116.094 62.9674C116.382 62.9674 116.626 62.8994 116.826 62.7634C117.026 62.6194 117.178 62.4154 117.282 62.1514C117.386 61.8874 117.438 61.5794 117.438 61.2274V60.9874C117.438 60.6674 117.386 60.3874 117.282 60.1474C117.178 59.9074 117.026 59.7194 116.826 59.5834C116.626 59.4394 116.382 59.3674 116.094 59.3674C115.806 59.3674 115.562 59.4394 115.362 59.5834C115.162 59.7194 115.01 59.9074 114.906 60.1474C114.802 60.3874 114.75 60.6674 114.75 60.9874V61.2274C114.75 61.5954 114.802 61.9114 114.906 62.1754C115.01 62.4314 115.162 62.6274 115.362 62.7634C115.562 62.8994 115.806 62.9674 116.094 62.9674Z" fill="#C3C6D0"/>
<path d="M106.133 64.3474V57.9874H109.541C110.101 57.9874 110.553 58.0634 110.897 58.2154C111.241 58.3594 111.493 58.5594 111.653 58.8154C111.813 59.0634 111.893 59.3474 111.893 59.6674C111.893 59.9634 111.805 60.2434 111.629 60.5074C111.453 60.7714 111.201 60.9474 110.873 61.0354C111.265 61.1314 111.573 61.3154 111.797 61.5874C112.021 61.8594 112.133 62.1754 112.133 62.5354C112.133 63.0874 111.937 63.5274 111.545 63.8554C111.153 64.1834 110.565 64.3474 109.781 64.3474H106.133ZM107.981 62.9554H109.325C109.645 62.9554 109.885 62.9074 110.045 62.8114C110.205 62.7154 110.285 62.5674 110.285 62.3674C110.285 62.1674 110.205 62.0194 110.045 61.9234C109.885 61.8194 109.645 61.7674 109.325 61.7674H107.981V62.9554ZM107.981 60.4714H109.217C109.545 60.4714 109.765 60.4234 109.877 60.3274C109.989 60.2234 110.045 60.0874 110.045 59.9194C110.045 59.7514 109.985 59.6194 109.865 59.5234C109.745 59.4274 109.529 59.3794 109.217 59.3794H107.981V60.4714Z" fill="#C3C6D0"/>
<path d="M102.231 64.5034C101.607 64.5034 101.051 64.3834 100.563 64.1434C100.075 63.9034 99.6912 63.5394 99.4112 63.0514C99.1312 62.5634 98.9912 61.9554 98.9912 61.2274V60.9874C98.9912 60.3154 99.1352 59.7434 99.4232 59.2714C99.7192 58.7994 100.111 58.4434 100.599 58.2034C101.095 57.9554 101.639 57.8314 102.231 57.8314C102.871 57.8314 103.407 57.9434 103.839 58.1674C104.271 58.3834 104.603 58.6754 104.835 59.0434C105.067 59.4114 105.199 59.8194 105.231 60.2674H103.323C103.267 59.9794 103.151 59.7594 102.975 59.6074C102.807 59.4474 102.559 59.3674 102.231 59.3674C101.975 59.3674 101.743 59.4274 101.535 59.5474C101.335 59.6674 101.175 59.8474 101.055 60.0874C100.943 60.3194 100.887 60.6194 100.887 60.9874V61.2274C100.887 61.6194 100.943 61.9434 101.055 62.1994C101.167 62.4554 101.323 62.6474 101.523 62.7754C101.723 62.8954 101.959 62.9554 102.231 62.9554C102.511 62.9554 102.747 62.8834 102.939 62.7394C103.139 62.5874 103.267 62.3634 103.323 62.0674H105.231C105.199 62.5634 105.055 62.9954 104.799 63.3634C104.543 63.7314 104.195 64.0154 103.755 64.2154C103.323 64.4074 102.815 64.5034 102.231 64.5034Z" fill="#C3C6D0"/>
<path d="M88.9062 64.3474V57.9874H90.7543V60.3514H93.1783V57.9874H95.0263V64.3474H93.1783V61.8634H90.7543V64.3474H88.9062Z" fill="#C3C6D0"/>
<path d="M84.8889 64.5034C84.2649 64.5034 83.7049 64.3874 83.2089 64.1554C82.7129 63.9154 82.3169 63.5514 82.0209 63.0634C81.7329 62.5754 81.5889 61.9634 81.5889 61.2274V60.9874C81.5889 60.2834 81.7289 59.6994 82.0089 59.2354C82.2889 58.7714 82.6689 58.4234 83.1489 58.1914C83.6369 57.9514 84.1769 57.8314 84.7689 57.8314C85.8169 57.8314 86.6089 58.1034 87.1449 58.6474C87.6809 59.1834 87.9489 59.9634 87.9489 60.9874V61.6594H83.4849C83.5009 61.9714 83.5729 62.2314 83.7009 62.4394C83.8369 62.6474 84.0089 62.7994 84.2169 62.8954C84.4249 62.9834 84.6489 63.0274 84.8889 63.0274C85.2409 63.0274 85.5169 62.9754 85.7169 62.8714C85.9249 62.7594 86.0609 62.6114 86.1249 62.4274H87.8289C87.7009 63.1234 87.3849 63.6434 86.8809 63.9874C86.3769 64.3314 85.7129 64.5034 84.8889 64.5034ZM84.8289 59.3074C84.6049 59.3074 84.3929 59.3434 84.1929 59.4154C83.9929 59.4874 83.8289 59.6074 83.7009 59.7754C83.5809 59.9354 83.5129 60.1554 83.4969 60.4354H86.1369C86.1369 60.1394 86.0769 59.9114 85.9569 59.7514C85.8369 59.5834 85.6769 59.4674 85.4769 59.4034C85.2849 59.3394 85.0689 59.3074 84.8289 59.3074Z" fill="#C3C6D0"/>
<path d="M71.7393 64.3474L73.8393 61.0714L71.8593 57.9874H73.8153L75.2673 60.4234H75.6153V57.9874H77.4633V60.4234H77.8233L79.3473 57.9874H81.2193L79.2393 60.9394L81.3393 64.3474H79.2993L77.8233 61.7914H77.4633V64.3474H75.6153V61.7914H75.2433L73.7193 64.3474H71.7393Z" fill="#C3C6D0"/>
<path d="M66.1668 66.9034C66.0468 66.9034 65.9268 66.8914 65.8068 66.8674V65.3314C65.9268 65.3554 66.0468 65.3674 66.1668 65.3674C66.3268 65.3674 66.4588 65.3314 66.5628 65.2594C66.6668 65.1954 66.7588 65.0874 66.8388 64.9354C66.9268 64.7834 67.0188 64.5834 67.1148 64.3354L64.4268 57.9874H66.4668L68.0508 62.2234L69.5508 57.9874H71.3868L68.9628 64.3474C68.7228 64.9474 68.4948 65.4354 68.2788 65.8114C68.0628 66.1954 67.7908 66.4714 67.4628 66.6394C67.1428 66.8154 66.7108 66.9034 66.1668 66.9034Z" fill="#C3C6D0"/>
<path d="M57.582 64.3474V57.9874H59.43V60.3514H61.854V57.9874H63.702V64.3474H61.854V61.8634H59.43V64.3474H57.582Z" fill="#C3C6D0"/>
<path d="M45.4648 64.3474V57.9874H47.3128V60.0514H48.3448C49.1768 60.0514 49.8048 60.2274 50.2288 60.5794C50.6528 60.9314 50.8648 61.4714 50.8648 62.1994C50.8648 62.6154 50.7808 62.9874 50.6128 63.3154C50.4448 63.6434 50.1768 63.8994 49.8088 64.0834C49.4408 64.2594 48.9528 64.3474 48.3448 64.3474H45.4648ZM47.3128 62.9554H48.1048C48.4248 62.9554 48.6568 62.8954 48.8008 62.7754C48.9448 62.6474 49.0168 62.4554 49.0168 62.1994C49.0168 61.9354 48.9448 61.7434 48.8008 61.6234C48.6648 61.5034 48.4328 61.4434 48.1048 61.4434H47.3128V62.9554ZM51.4168 64.3474V57.9874H53.2648V64.3474H51.4168Z" fill="#C3C6D0"/>
<path d="M40.8271 64.3474V59.4994H38.8711V57.9874H44.6311V59.4994H42.6751V64.3474H40.8271Z" fill="#C3C6D0"/>
</svg>
