<svg width="20" height="20" viewBox="0 0 20 20" fill="none" xmlns="http://www.w3.org/2000/svg">
<path d="M9.01855 10.2832C8.76356 9.51677 9.51677 8.76356 10.2832 9.01855L19.2832 12.0186C20.1098 12.2944 20.1937 13.4715 19.4141 13.8613L15.7119 15.7119L13.8613 19.4141C13.4715 20.1937 12.2944 20.1098 12.0186 19.2832L9.01855 10.2832ZM5.05957 13.46C5.97144 12.5481 7.3855 13.9622 6.47363 14.874L4.27344 17.0742C3.36116 17.9855 1.94808 16.5724 2.85938 15.6602L5.05957 13.46ZM13.1514 16.3604L14.0723 14.5195C14.169 14.3261 14.3261 14.169 14.5195 14.0723L16.3604 13.1514L11.5469 11.5469L13.1514 16.3604ZM3.9668 8.9668C5.25649 8.9668 5.25649 10.9668 3.9668 10.9668H0.966797C-0.322286 10.9663 -0.322286 8.96727 0.966797 8.9668H3.9668ZM2.85938 4.27344C1.94916 3.36129 3.36129 1.94916 4.27344 2.85938L6.47363 5.05957C7.3855 5.97144 5.97144 7.3855 5.05957 6.47363L2.85938 4.27344ZM15.6602 2.85938C16.5724 1.94808 17.9855 3.36116 17.0742 4.27344L14.874 6.47363C13.9622 7.3855 12.5481 5.97144 13.46 5.05957L15.6602 2.85938ZM8.9668 0.966797C8.96727 -0.322286 10.9663 -0.322286 10.9668 0.966797V3.9668C10.9668 5.25649 8.9668 5.25649 8.9668 3.9668V0.966797Z" fill="black"/>
</svg>
