<svg width="22" height="22" viewBox="0 0 22 22" fill="none" xmlns="http://www.w3.org/2000/svg">
<path d="M2.45264 2.81396C3.6786 1.52281 5.70728 1.76626 6.72119 3.19971L7.98193 4.98193C8.97374 6.38695 8.62014 7.82857 7.51025 9.00049C7.17749 10.6711 10.6298 14.3753 12.3403 14.1821C13.417 13.2817 14.6661 12.4716 16.0806 13.2837L17.9927 14.3843C19.6244 15.3243 20.2198 17.2677 18.6997 18.9985L17.7603 20.0776C16.9821 20.9533 16.5719 21.2657 15.4849 21.4321C7.90707 22.414 0.624161 14.1314 0.0112305 7.05127C-0.0494183 6.18014 0.127776 5.38449 0.689941 4.68896L2.45264 2.81396ZM5.08838 4.354C4.81365 3.96577 4.25483 3.82041 3.90283 4.19092L2.33545 5.84424L2.33447 5.84521C2.0348 6.16064 1.9759 6.47759 2.00439 6.88623C2.2466 9.65306 3.9499 13.042 6.53174 15.6743C9.21006 18.4048 12.3847 19.8827 15.1821 19.4546C15.6902 19.3768 15.9326 19.1228 16.2651 18.7485C16.5371 18.4425 16.7676 18.1669 17.1968 17.6782C17.6447 17.1681 17.7184 16.6186 17.1323 16.2046L15.0845 15.0171C14.7667 14.835 14.4109 15.0798 14.187 15.3149C13.9631 15.5501 13.7537 15.8388 13.2729 16.019C10.0923 17.2111 4.54422 11.3743 5.80127 8.04736C5.8048 8.03699 5.88618 7.80419 6.17822 7.46338C6.47729 7.11447 6.61253 6.5098 6.34814 6.13525L5.08838 4.354ZM10.0825 4.66357C10.8063 0.804628 15.3751 -1.26265 18.7622 0.835449C22.3245 3.04286 22.1755 8.22692 18.8706 10.5415C17.1867 11.6315 14.9834 11.7706 13.1753 10.8726L12.0161 11.1567C10.9942 11.43 10.0284 10.4638 10.3013 9.44189L10.5854 8.28271C10.0291 7.16343 9.85243 5.89215 10.0825 4.66357ZM17.5024 2.4165C15.3438 1.27087 12.5014 2.61687 12.0483 5.03174C11.8405 6.14171 12.2221 7.08196 12.7026 8.04736L12.4722 8.98389L13.4097 8.75537C14.9055 9.49769 16.5415 9.81164 17.9946 8.71436C20.1429 7.0908 19.758 3.71451 17.5024 2.4165Z" fill="black"/>
</svg>
