<svg width="21" height="22" viewBox="0 0 21 22" fill="none" xmlns="http://www.w3.org/2000/svg">
<path d="M8 0C8.55229 0 9 0.447715 9 1V3H12V1C12 0.447715 12.4477 0 13 0H16C16.5523 0 17 0.447715 17 1V5.68262C17.6317 6.63286 18 7.77336 18 9V12.5H20C20.5523 12.5 21 12.9477 21 13.5V18.5C21 19.0523 20.5523 19.5 20 19.5H17.9551C17.7142 20.9238 16.4487 22 15 22H6C4.55135 22 3.28583 20.9238 3.04492 19.5H1C0.447715 19.5 0 19.0523 0 18.5V13.5C0 12.9477 0.447715 12.5 1 12.5H3V9C3 7.77336 3.36828 6.63286 4 5.68262V1C4 0.447715 4.44772 0 5 0H8ZM9 5C6.79078 5 5 6.79078 5 9V19C5.02693 19.544 5.43783 20 6 20H15C15.5445 20 16 19.5445 16 19V9C16 6.79078 14.2092 5 12 5H9ZM2 17.5H3V14.5H2V17.5ZM18 17.5H19V14.5H18V17.5ZM14 9.5C15.2897 9.5 15.2897 11.5 14 11.5H13.5V12.5C13.5 13.7897 11.5 13.7897 11.5 12.5V11.5H7C5.71031 11.5 5.71031 9.5 7 9.5H14ZM6 3.80371C6.31632 3.6207 6.65056 3.46531 7 3.3418V2H6V3.80371ZM14 3.3418C14.3494 3.46531 14.6837 3.6207 15 3.80371V2H14V3.3418Z" fill="black"/>
</svg>
