<svg width="18" height="22" viewBox="0 0 18 22" fill="none" xmlns="http://www.w3.org/2000/svg">
<path d="M16 0C17.0891 0 18 0.910941 18 2V20C18 21.0891 17.0891 22 16 22H2C0.910941 22 0 21.0891 0 20V2C0 0.910941 0.910941 0 2 0H16ZM2 20H16V2H2V20ZM9 16C10.2897 16 10.2897 18 9 18H5.5C4.21031 18 4.21031 16 5.5 16H9ZM12.5 13C13.7897 13 13.7897 15 12.5 15H5.5C4.21031 15 4.21031 13 5.5 13H12.5ZM11.293 4.79297C12.2048 3.8811 13.6189 5.29516 12.707 6.20703L8.70703 10.207C8.31651 10.5976 7.68349 10.5976 7.29297 10.207L5.29297 8.20703C4.3811 7.29516 5.79516 5.8811 6.70703 6.79297L8 8.08594L11.293 4.79297Z" fill="black"/>
</svg>
