<svg width="20" height="19" viewBox="0 0 20 19" fill="none" xmlns="http://www.w3.org/2000/svg">
<path d="M17.4697 11.9062C17.8427 11.4996 18.4747 11.4722 18.8818 11.8447C19.289 12.2178 19.3163 12.8506 18.9434 13.2578L14.1113 18.5342C13.923 18.7394 13.6574 18.8571 13.3789 18.8584C13.1001 18.8595 12.8326 18.744 12.6426 18.54L9.66602 15.3428C9.28992 14.9386 9.31275 14.305 9.7168 13.9287C10.1209 13.553 10.7536 13.5759 11.1299 13.9795L13.3691 16.3838L17.4697 11.9062ZM4.58301 0.766602C5.8534 0.166481 7.25994 -0.0884951 8.66016 0.0273438C10.0604 0.143335 11.4061 0.62685 12.5605 1.42773C13.7148 2.22868 14.6385 3.31994 15.2373 4.59082C15.836 5.86201 16.0892 7.26973 15.9717 8.66992C15.854 10.07 15.3697 11.4149 14.5674 12.5684C13.8308 13.6269 12.1893 12.4857 12.9258 11.4268C13.5276 10.5616 13.8903 9.55213 13.9785 8.50195C14.0665 7.45199 13.8767 6.39658 13.4277 5.44336C12.9786 4.49025 12.2865 3.671 11.4209 3.07031C10.5551 2.46969 9.54526 2.1075 8.49512 2.02051C7.44504 1.93366 6.39022 2.12516 5.4375 2.5752C4.48468 3.02536 3.66624 3.71853 3.06641 4.58496C2.46669 5.4514 2.10541 6.46149 2.01953 7.51172C1.93379 8.56193 2.12705 9.61707 2.57812 10.5693C3.13034 11.7349 1.32284 12.5914 0.770508 11.4258C0.168985 10.156 -0.0879688 8.74902 0.0263672 7.34863C0.140871 5.94849 0.62241 4.60243 1.42188 3.44727C2.22167 2.29192 3.3125 1.36685 4.58301 0.766602ZM8.50293 4.39355C11.3783 4.39356 11.2895 9.66016 8.54102 9.66016C8.17368 9.66016 7.7019 9.66016 7.28809 9.66016V9.89746H7.73633C9.02599 9.89769 9.02596 11.8972 7.73633 11.8975H7.26074C6.99794 13.0147 5.28828 12.8259 5.28809 11.668V5.40137C5.28821 4.9204 5.60731 4.3937 6.32129 4.39355C6.32129 4.39355 7.71045 4.39355 8.50293 4.39355ZM7.28809 7.66016H7.87598C8.67771 7.65992 8.71852 6.39205 7.91309 6.39355H7.28809V7.66016Z" fill="black"/>
</svg>
