<svg width="30" height="30" viewBox="0 0 30 30" fill="none" xmlns="http://www.w3.org/2000/svg">
<g clip-path="url(#clip0_2150_7484)">
<path d="M30 30H0V0H30V30ZM21.0244 8.11426C20.8031 8.08428 20.5779 8.11456 20.3721 8.20117L6.12207 14.2012C5.12885 14.6195 5.07745 16.0557 6.12207 16.4893C6.8954 16.8101 7.84357 17.0732 8.86523 17.2432C9.42516 17.3365 9.89375 17.2429 10.792 16.6963C11.8107 16.076 14.8905 13.8739 16.8086 12.4258C17.581 11.8426 17.8787 12.2087 17.2246 12.8428C15.5579 14.457 12.6413 17.1721 12.458 17.8945C12.2454 18.7395 13.9813 19.9271 14.5479 20.2979C15.681 21.0385 16.9408 21.7482 17.7891 22.209C18.8032 22.7598 20.0169 22.1254 20.2002 21.0195L22.0898 9.55566C22.126 9.33544 22.1031 9.10948 22.0225 8.90137C21.9417 8.69306 21.8063 8.50944 21.6309 8.37109C21.4554 8.23275 21.2458 8.14426 21.0244 8.11426Z" fill="url(#paint0_linear_2150_7484)"/>
</g>
<defs>
<linearGradient id="paint0_linear_2150_7484" x1="28.2" y1="1.8" x2="1.2" y2="28.8" gradientUnits="userSpaceOnUse">
<stop stop-color="#039BE5"/>
<stop offset="1" stop-color="#006CA1"/>
</linearGradient>
<clipPath id="clip0_2150_7484">
<rect width="30" height="30" rx="10" fill="white"/>
</clipPath>
</defs>
</svg>
