<svg width="100" height="100" viewBox="0 0 100 100" fill="none" xmlns="http://www.w3.org/2000/svg">
<g clip-path="url(#clip0_2408_16067)">
<rect width="100" height="100" fill="#D14E15"/>
<path d="M42.513 39.9546L53.5991 5.70384L64.7619 39.9293C64.7619 39.9293 100.677 40.1987 123.688 39.9095C146.705 39.6201 182.613 38.4473 182.613 38.4473C182.613 38.4473 130.419 43.995 98.885 54.7273C80.6893 60.92 70.2076 64.3773 53.6754 74.1814C41.583 81.3525 24.5749 95.3747 24.5749 95.3747L35.661 61.124L6.51206 39.9956L42.513 39.9546ZM43.9794 58.4107L38.0185 76.8271L53.6664 65.4319L63.337 58.3884L78.9836 46.9927L59.6278 47.0142L53.6248 28.6112L47.6639 47.0275L28.305 47.0494L43.9794 58.4107Z" fill="#F9F9F9"/>
</g>
<defs>
<clipPath id="clip0_2408_16067">
<rect width="100" height="100" fill="white"/>
</clipPath>
</defs>
</svg>
